# xmcd CD database file
#
# Track frame offsets:
#	150
#	16248
#	29155
#	40295
#	54036
#	65271
#	77435
#	89446
#	102141
#	117278
#	131802
#	143791
#	157297
#	168722
#	183765
#	196848
#	212414
#	222502
#	235179
#	246820
#	258381
#	268771
#
# Disc length: 3749 seconds
#
# Revision: 8
# Processed by: cddbd v1.5.2PL0 Copyright (c) Steve Scherf et al.
# Submitted via: CDex 1.51
#
DISCID=380ea316
DTITLE=Glenn Miller - Vol.02 - In The Mood
DYEAR=1900
DGENRE=Jazz
TTITLE0=In The Mood
TTITLE1=When You Wish Upon A Star
TTITLE2=Give A Little Whistle
TTITLE3=Missouri Waltz
TTITLE4=Beautiful Ohio
TTITLE5=What's The Matter With Me
TTITLE6=Say ''Si Si''  (Para Vigo Me Voy)
TTITLE7=The Rhumba Jumps
TTITLE8=Star Dust
TTITLE9=My Melancholy Baby
TTITLE10=Let's All Sing Together
TTITLE11=Rug Cutter's Swing
TTITLE12=The Woodpecker Song
TTITLE13=Sweet Potatoe Piper
TTITLE14=Too Romantic
TTITLE15=Tuxedo Junction
TTITLE16=Danny Boy  (Londonderry Air)
TTITLE17=Imagination
TTITLE18=Shake Down The Stars
TTITLE19=I'll Never Smile Again
TTITLE20=Starlight And Music
TTITLE21=Polka Dots And Moonbeams
EXTD=Vol 2 of a 10 CD box\n\n(P) 2000 Trumpets Of Jericho Ltd.\n(C) 2000 TIM The International Music Company AG\n\nOder No. 204272\n
EXTT0=
EXTT1=
EXTT2=
EXTT3=
EXTT4=
EXTT5=
EXTT6=
EXTT7=
EXTT8=
EXTT9=
EXTT10=
EXTT11=
EXTT12=
EXTT13=
EXTT14=
EXTT15=
EXTT16=
EXTT17=
EXTT18=
EXTT19=
EXTT20=
EXTT21=
PLAYORDER=
